M48
INCH
T01C0.0393
T02C0.0500
T03C0.0400
T04C0.0600
T05C0.0300
T06C0.0450
%
T01
X+036840Y-007795
X+034840Y-007795
X+032840Y-007795
X+030840Y-007795
X+071636Y-036224
X+073636Y-036224
X+072636Y-032224
X+023000Y-017500
X+023000Y-019500
X+023000Y-021500
X+078500Y-036500
X+080500Y-036500
X+082500Y-036500
X+024000Y-032000
X+026000Y-032000
X+060500Y-025000
X+060500Y-023000
X+060500Y-021000
T02
X+026685Y-002811
X+026685Y-008716
X+001080Y-004948
X+001733Y-025577
X+001080Y-002979
X+001733Y-023609
T03
X+021074Y-011311
X+019106Y-011311
X+022000Y-013000
X+018000Y-013000
X+045578Y-002500
X+046578Y-002500
X+047578Y-002500
X+044578Y-002500
X+057578Y-002500
X+058578Y-002500
X+059578Y-002500
X+060578Y-002500
X+052409Y-029984
X+052409Y-030984
X+052409Y-031984
X+052409Y-032984
X+052409Y-033984
X+052409Y-034984
X+052409Y-035984
X+055409Y-035984
X+055409Y-034984
X+055409Y-033984
X+055409Y-032984
X+055409Y-031984
X+055409Y-030984
X+055409Y-029984
X+053208Y-028102
X+055177Y-028102
X+048917Y-028102
X+048917Y-030070
X+058129Y-028102
X+058129Y-030070
X+057086Y-016732
X+057086Y-010732
X+056086Y-016732
X+056086Y-010732
X+055086Y-016732
X+055086Y-010732
X+054086Y-016732
X+054086Y-010732
X+053086Y-010732
X+053086Y-016732
X+052086Y-016732
X+052086Y-010732
X+051086Y-016732
X+051086Y-010732
X+050086Y-010732
X+050086Y-016732
X+049086Y-016732
X+049086Y-010732
X+048086Y-010732
X+048086Y-016732
X+047086Y-010732
X+047086Y-016732
X+046086Y-016732
X+046086Y-010732
X+025181Y-012015
X+024181Y-012015
X+023181Y-012015
X+038500Y-029500
X+038500Y-030500
X+038500Y-031500
X+020000Y-028500
X+018031Y-028500
X+019500Y-023000
X+019500Y-024000
X+019500Y-025000
X+022000Y-026500
X+018000Y-026500
X+044500Y-006500
X+044500Y-007500
X+060000Y-005000
X+028000Y-036000
X+029000Y-036000
X+030000Y-036000
X+031000Y-036000
X+032000Y-036000
X+042500Y-014500
X+042500Y-015500
X+042500Y-016500
X+051000Y-005500
X+052000Y-005500
X+053000Y-005500
X+007000Y-034500
X+004869Y-033830
X+007000Y-033160
X+004869Y-032490
X+007000Y-031820
X+013000Y-036000
X+013000Y-037574
X+009204Y-028950
X+009204Y-030950
X+042000Y-029000
X+042000Y-030968
X+073988Y-024255
X+072988Y-024255
X+071988Y-024255
X+070988Y-024255
X+069988Y-024255
X+068988Y-024255
X+067988Y-024255
X+067988Y-027255
X+068988Y-027255
X+069988Y-027255
X+070988Y-027255
X+071988Y-027255
X+072988Y-027255
X+073988Y-027255
X+075677Y-027011
X+075677Y-025043
X+076177Y-030011
X+074208Y-030011
X+075677Y-020811
X+073708Y-020811
X+075177Y-014011
X+073208Y-014011
X+065425Y-002011
X+065425Y-003011
X+065425Y-009688
X+065425Y-010688
X+065425Y-011688
X+011000Y-034000
X+009031Y-034000
X+056000Y-018500
X+054031Y-018500
X+065385Y-005889
X+065385Y-006889
X+082275Y-005389
X+082275Y-003421
X+081275Y-009389
X+082850Y-009389
T04
X+021633Y-031582
X+016909Y-031582
X+019271Y-030795
X+021633Y-036385
X+016909Y-036385
X+018000Y-008500
X+022724Y-008500
X+020362Y-009287
X+018000Y-003696
X+022724Y-003696
X+013000Y-034000
X+013000Y-028500
T05
X+045125Y-032543
X+041125Y-032543
X+042173Y-035889
X+042173Y-034708
X+045125Y-027031
X+041125Y-027031
X+045125Y-026047
X+041125Y-026047
X+045913Y-029000
X+045913Y-030181
X+046700Y-032543
X+046700Y-036543
X+052393Y-025685
X+053377Y-025685
X+050700Y-026047
X+046700Y-026047
X+048866Y-032346
X+048866Y-033527
X+050047Y-030968
X+050047Y-026968
X+045913Y-033330
X+045913Y-037330
X+051228Y-029984
X+051228Y-033984
X+059692Y-034708
X+059692Y-035889
X+056740Y-026834
X+056740Y-030834
X+057330Y-031952
X+057330Y-035952
X+026500Y-012000
X+030500Y-012000
X+026500Y-013000
X+030500Y-013000
X+033500Y-014500
X+029500Y-014500
X+033500Y-015500
X+029500Y-015500
X+029000Y-027000
X+029000Y-031000
X+030000Y-027000
X+030000Y-031000
X+031000Y-027000
X+031000Y-031000
X+032000Y-027000
X+032000Y-031000
X+041499Y-009500
X+045499Y-009500
X+026000Y-014500
X+026000Y-018500
X+047500Y-012000
X+051500Y-012000
X+054500Y-008000
X+058500Y-008000
X+044500Y-012500
X+044500Y-018500
X+008000Y-037000
X+009181Y-037000
X+025000Y-035985
X+025000Y-038500
X+071429Y-016972
X+071429Y-012972
X+068082Y-014019
X+069263Y-014019
X+076940Y-016972
X+076940Y-012972
X+077925Y-016972
X+077925Y-012972
X+074972Y-017759
X+073791Y-017759
X+071429Y-018547
X+067429Y-018547
X+078318Y-025240
X+078318Y-026224
X+077925Y-022547
X+077925Y-018547
X+071625Y-020712
X+070444Y-020712
X+073003Y-021893
X+077003Y-021893
X+070641Y-017759
X+066641Y-017759
X+073988Y-023074
X+069988Y-023074
X+069263Y-031539
X+068082Y-031539
X+077137Y-028586
X+073137Y-028586
X+069371Y-029082
X+065371Y-029082
X+079312Y-009543
X+079312Y-013543
X+027500Y-016500
X+027500Y-020500
X+058661Y-010393
X+058661Y-014393
X+060645Y-030496
X+060645Y-032496
X+059645Y-031496
X+080775Y-002889
X+079775Y-002889
X+078775Y-002889
X+077775Y-002889
X+077775Y-005889
X+078775Y-005889
X+079775Y-005889
X+080775Y-005889
X+075775Y-001889
X+071775Y-001889
X+075775Y-008889
X+071775Y-008889
X+075775Y-005389
X+071775Y-005389
X+075775Y-006389
X+071775Y-006389
X+077775Y-008689
X+077775Y-010689
X+045952Y-011982
X+050500Y-015000
T06
X+036000Y-037000
X+036000Y-034047
M30
